# xmcd
#
# Track frame offsets: 
#        150
#        28950
#        59176
#        83402
#        104703
#        134104
#        162305
#        190731
#        218781
#        241657
#
# Disc length: 3495 seconds
#
# Revision: 2
# Processed by: cddbd v1.5.2PL0 Copyright (c) Steve Scherf et al.
# Submitted via: ExactAudioCopy v0.99pb5
#
DISCID=920da50a
DTITLE=Harold Mabern Trio - Don't Know Why
DYEAR=2003
DGENRE=Jazz
TTITLE0=Edward Lee
TTITLE1=Dance With Me
TTITLE2=My Favorite Things
TTITLE3=Don't Know Why
TTITLE4=Dreamy
TTITLE5=Cabu
TTITLE6=The Surrey With The Fringe On Top
TTITLE7=Nightlife In Tokyo
TTITLE8=Blues For David
TTITLE9=My Shining Hour
EXTD=Harold Mabern - piano\nNat Reeves - bass\nJoe Farnsworth - drums\n
EXTD=rec. April 6, 2003
EXTT0=
EXTT1=
EXTT2=
EXTT3=
EXTT4=
EXTT5=
EXTT6=
EXTT7=
EXTT8=
EXTT9=
PLAYORDER=
